<svg xmlns="http://www.w3.org/2000/svg" width="1500" height="940" viewBox="0 0 1500 940">
<defs><marker id="a" markerWidth="12" markerHeight="12" refX="10" refY="6" orient="auto"><path d="M2,2 L10,6 L2,10" fill="#1F2937"/></marker>
<style>.title{font:700 42px "Virgil","Comic Sans MS",Arial;fill:#1F2937}.subtitle{font:500 21px "Virgil","Comic Sans MS",Arial;fill:#6B7280}.label{font:700 23px "Virgil","Comic Sans MS",Arial;fill:#1F2937}.small{font:500 17px "Virgil","Comic Sans MS",Arial;fill:#6B7280}.tiny{font:500 14px "Virgil","Comic Sans MS",Arial;fill:#6B7280}.mono{font:600 16px Consolas,monospace;fill:#1F2937}</style></defs>
<rect width="1500" height="940" fill="#FFFDF7"/><path d="M40 70 C210 35, 390 55, 680 38" stroke="#FBBF24" stroke-width="16" opacity=".26" fill="none" stroke-linecap="round"/><text x="54" y="76" class="title">DSec：Agent 的执行内核</text><text x="58" y="112" class="subtitle">统一 SDK 下接 function、container、microVM、fullVM；每条命令都有轨迹。</text><rect x="83" y="224" width="260" height="120" rx="22" fill="#DBEAFE" opacity=".50"/><rect x="80" y="220" width="260" height="120" rx="22" fill="#DBEAFE" stroke="#2563EB" stroke-width="3"/><path d="M100 222 C 166.66666666666669 217, 253.33333333333334 224, 320 221" fill="none" stroke="#2563EB" opacity=".45"/><text x="104" y="270" class="label">libdsec SDK</text><text x="104" y="304" class="tiny">训练/评测统一入口</text><rect x="433" y="224" width="260" height="120" rx="22" fill="#DCFCE7" opacity=".50"/><rect x="430" y="220" width="260" height="120" rx="22" fill="#DCFCE7" stroke="#16A34A" stroke-width="3"/><path d="M450 222 C 516.6666666666666 217, 603.3333333333334 224, 670 221" fill="none" stroke="#16A34A" opacity=".45"/><text x="454" y="270" class="label">Apiserver</text><text x="454" y="304" class="tiny">API gateway</text><rect x="783" y="224" width="260" height="120" rx="22" fill="#EDE9FE" opacity=".50"/><rect x="780" y="220" width="260" height="120" rx="22" fill="#EDE9FE" stroke="#7C3AED" stroke-width="3"/><path d="M800 222 C 866.6666666666666 217, 953.3333333333334 224, 1020 221" fill="none" stroke="#7C3AED" opacity=".45"/><text x="804" y="270" class="label">Edge</text><text x="804" y="304" class="tiny">每台 host 的执行 agent</text><rect x="1133" y="224" width="260" height="120" rx="22" fill="#FEF3C7" opacity=".50"/><rect x="1130" y="220" width="260" height="120" rx="22" fill="#FEF3C7" stroke="#D97706" stroke-width="3"/><path d="M1150 222 C 1216.6666666666667 217, 1303.3333333333333 224, 1370 221" fill="none" stroke="#D97706" opacity=".45"/><text x="1154" y="270" class="label">Watcher</text><text x="1154" y="304" class="tiny">监控与生命周期</text><path d="M340 280 C 385.0 280, 385.0 280, 430 280" fill="none" stroke="#1F2937" stroke-width="3" marker-end="url(#a)"/><path d="M690 280 C 735.0 280, 735.0 280, 780 280" fill="none" stroke="#1F2937" stroke-width="3" marker-end="url(#a)"/><path d="M1040 280 C 1085.0 280, 1085.0 280, 1130 280" fill="none" stroke="#1F2937" stroke-width="3" marker-end="url(#a)"/><rect x="148" y="509" width="240" height="105" rx="22" fill="#DCFCE7" opacity=".50"/><rect x="145" y="505" width="240" height="105" rx="22" fill="#DCFCE7" stroke="#16A34A" stroke-width="3"/><path d="M165 507 C 225.0 502, 305.0 509, 365 506" fill="none" stroke="#16A34A" opacity=".45"/><text x="169" y="550" class="label">Function</text><text x="169" y="581" class="tiny">轻量工具调用</text><path d="M910 340 C 587.5 340, 587.5 505, 265.0 505" fill="none" stroke="#16A34A" stroke-width="3" marker-end="url(#a)" stroke-dasharray="8 8"/><rect x="458" y="509" width="240" height="105" rx="22" fill="#DBEAFE" opacity=".50"/><rect x="455" y="505" width="240" height="105" rx="22" fill="#DBEAFE" stroke="#2563EB" stroke-width="3"/><path d="M475 507 C 535.0 502, 615.0 509, 675 506" fill="none" stroke="#2563EB" opacity=".45"/><text x="479" y="550" class="label">Container</text><text x="479" y="581" class="tiny">常规代码任务</text><path d="M910 340 C 742.5 340, 742.5 505, 575.0 505" fill="none" stroke="#2563EB" stroke-width="3" marker-end="url(#a)" stroke-dasharray="8 8"/><rect x="768" y="509" width="240" height="105" rx="22" fill="#EDE9FE" opacity=".50"/><rect x="765" y="505" width="240" height="105" rx="22" fill="#EDE9FE" stroke="#7C3AED" stroke-width="3"/><path d="M785 507 C 845.0 502, 925.0 509, 985 506" fill="none" stroke="#7C3AED" opacity=".45"/><text x="789" y="550" class="label">microVM</text><text x="789" y="581" class="tiny">Firecracker 隔离</text><path d="M910 340 C 897.5 340, 897.5 505, 885.0 505" fill="none" stroke="#7C3AED" stroke-width="3" marker-end="url(#a)" stroke-dasharray="8 8"/><rect x="1078" y="509" width="240" height="105" rx="22" fill="#FFEDD5" opacity=".50"/><rect x="1075" y="505" width="240" height="105" rx="22" fill="#FFEDD5" stroke="#EA580C" stroke-width="3"/><path d="M1095 507 C 1155.0 502, 1235.0 509, 1295 506" fill="none" stroke="#EA580C" opacity=".45"/><text x="1099" y="550" class="label">fullVM</text><text x="1099" y="581" class="tiny">QEMU 完整 OS</text><path d="M910 340 C 1052.5 340, 1052.5 505, 1195.0 505" fill="none" stroke="#EA580C" stroke-width="3" marker-end="url(#a)" stroke-dasharray="8 8"/><rect x="233" y="724" width="1040" height="110" rx="22" fill="#CCFBF1" opacity=".50"/><rect x="230" y="720" width="1040" height="110" rx="22" fill="#CCFBF1" stroke="#0D9488" stroke-width="3"/><path d="M250 722 C 576.6666666666667 717, 923.3333333333334 724, 1250 721" fill="none" stroke="#0D9488" opacity=".45"/><text x="270" y="764" class="small">3FS + EROFS / overlaybd：镜像按需加载；Trajectory log：命令和结果可 fast-forward / replay。</text></svg>