<svg xmlns="http://www.w3.org/2000/svg" width="1600" height="900" viewBox="0 0 1600 900">
<defs><marker id="a" markerWidth="12" markerHeight="12" refX="10" refY="6" orient="auto"><path d="M2,2 L10,6 L2,10" fill="#1F2937"/></marker>
<style>.title{font:700 42px "Virgil","Comic Sans MS",Arial;fill:#1F2937}.subtitle{font:500 21px "Virgil","Comic Sans MS",Arial;fill:#6B7280}.label{font:700 23px "Virgil","Comic Sans MS",Arial;fill:#1F2937}.small{font:500 17px "Virgil","Comic Sans MS",Arial;fill:#6B7280}.tiny{font:500 14px "Virgil","Comic Sans MS",Arial;fill:#6B7280}.mono{font:600 16px Consolas,monospace;fill:#1F2937}</style></defs>
<rect width="1600" height="900" fill="#FFFDF7"/><path d="M40 70 C210 35, 390 55, 680 38" stroke="#FBBF24" stroke-width="16" opacity=".26" fill="none" stroke-linecap="round"/><text x="54" y="76" class="title">DeepSeek-V4 的第三条暗线</text><text x="58" y="112" class="subtitle">从语言模型到 Agent 操作系统</text><rect x="123" y="189" width="1360" height="610" rx="34" fill="#fff" opacity=".50"/><rect x="120" y="185" width="1360" height="610" rx="34" fill="#fff" stroke="#4B5563" stroke-width="3"/><path d="M140 187 C 573.3333333333333 182, 1026.6666666666665 189, 1460 186" fill="none" stroke="#4B5563" opacity=".45"/><rect x="183" y="279" width="300" height="145" rx="22" fill="#DBEAFE" opacity=".50"/><rect x="180" y="275" width="300" height="145" rx="22" fill="#DBEAFE" stroke="#2563EB" stroke-width="3"/><path d="M200 277 C 280.0 272, 380.0 279, 460 276" fill="none" stroke="#2563EB" opacity=".45"/><text x="204" y="331" class="label">OPD / GRM</text><text x="204" y="369" class="small">专家合成 + 生成式评委</text><rect x="653" y="249" width="300" height="145" rx="22" fill="#DCFCE7" opacity=".50"/><rect x="650" y="245" width="300" height="145" rx="22" fill="#DCFCE7" stroke="#16A34A" stroke-width="3"/><path d="M670 247 C 750.0 242, 850.0 249, 930 246" fill="none" stroke="#16A34A" opacity=".45"/><text x="674" y="301" class="label">Quick Instruction</text><text x="674" y="339" class="small">把小决策折进主模型</text><rect x="1118" y="279" width="300" height="145" rx="22" fill="#EDE9FE" opacity=".50"/><rect x="1115" y="275" width="300" height="145" rx="22" fill="#EDE9FE" stroke="#7C3AED" stroke-width="3"/><path d="M1135 277 C 1215.0 272, 1315.0 279, 1395 276" fill="none" stroke="#7C3AED" opacity=".45"/><text x="1139" y="331" class="label">Rollout WAL</text><text x="1139" y="369" class="small">中断后继续原轨迹</text><rect x="358" y="569" width="330" height="145" rx="22" fill="#FFEDD5" opacity=".50"/><rect x="355" y="565" width="330" height="145" rx="22" fill="#FFEDD5" stroke="#EA580C" stroke-width="3"/><path d="M375 567 C 465.0 562, 575.0 569, 665 566" fill="none" stroke="#EA580C" opacity=".45"/><text x="379" y="621" class="label">DSec Sandbox</text><text x="379" y="659" class="small">真实环境里行动</text><rect x="903" y="569" width="340" height="145" rx="22" fill="#FEF3C7" opacity=".50"/><rect x="900" y="565" width="340" height="145" rx="22" fill="#FEF3C7" stroke="#D97706" stroke-width="3"/><path d="M920 567 C 1013.3333333333334 562, 1126.6666666666667 569, 1220 566" fill="none" stroke="#D97706" opacity=".45"/><text x="924" y="621" class="label">Trajectory Log</text><text x="924" y="659" class="small">命令、结果、状态都可重放</text><path d="M480 345 C 565.0 345, 565.0 318, 650 318" fill="none" stroke="#1F2937" stroke-width="3" marker-end="url(#a)"/><path d="M950 318 C 1032.5 318, 1032.5 345, 1115 345" fill="none" stroke="#1F2937" stroke-width="3" marker-end="url(#a)"/><path d="M1280 420 C 1175.0 420, 1175.0 565, 1070 565" fill="none" stroke="#1F2937" stroke-width="3" marker-end="url(#a)"/><path d="M650 390 C 585.0 390, 585.0 565, 520 565" fill="none" stroke="#1F2937" stroke-width="3" marker-end="url(#a)"/><path d="M685 637 C 792.5 637, 792.5 637, 900 637" fill="none" stroke="#1F2937" stroke-width="3" marker-end="url(#a)"/><text x="180" y="825" class="subtitle">Agent 不是只会回答；它要行动、失败、恢复，并留下可审计的轨迹。</text></svg>