<svg xmlns="http://www.w3.org/2000/svg" width="1600" height="900" viewBox="0 0 1600 900">
<defs><marker id="a" markerWidth="12" markerHeight="12" refX="10" refY="6" orient="auto"><path d="M2,2 L10,6 L2,10" fill="#1F2937"/></marker>
<style>.title{font:700 42px "Virgil","Comic Sans MS",Arial;fill:#1F2937}.subtitle{font:500 21px "Virgil","Comic Sans MS",Arial;fill:#6B7280}.label{font:700 23px "Virgil","Comic Sans MS",Arial;fill:#1F2937}.small{font:500 17px "Virgil","Comic Sans MS",Arial;fill:#6B7280}.tiny{font:500 14px "Virgil","Comic Sans MS",Arial;fill:#6B7280}</style></defs>
<rect width="1600" height="900" fill="#FFFDF7"/><path d="M40 70 C210 35, 390 55, 650 38" stroke="#FBBF24" stroke-width="16" opacity=".26" fill="none" stroke-linecap="round"/><text x="54" y="76" class="title">DeepSeek-V4 的第二条暗线</text><text x="58" y="112" class="subtitle">训练一台不会失控的万亿参数机器</text><rect x="123" y="189" width="1360" height="610" rx="22" fill="#fff" opacity=".5"/><rect x="120" y="185" width="1360" height="610" rx="22" fill="#fff" stroke="#4B5563" stroke-width="3"/><path d="M140 187 C 573.3333333333333 182, 1026.6666666666665 189, 1460 186" fill="none" stroke="#4B5563" opacity=".45"/><rect x="188" y="289" width="300" height="140" rx="22" fill="#DBEAFE" opacity=".5"/><rect x="185" y="285" width="300" height="140" rx="22" fill="#DBEAFE" stroke="#2563EB" stroke-width="3"/><path d="M205 287 C 285.0 282, 385.0 289, 465 286" fill="none" stroke="#2563EB" opacity=".45"/><text x="209" y="341" class="label">TileLang</text><text x="209" y="379" class="small">把 kernel 生产工业化</text><rect x="653" y="254" width="300" height="140" rx="22" fill="#DCFCE7" opacity=".5"/><rect x="650" y="250" width="300" height="140" rx="22" fill="#DCFCE7" stroke="#16A34A" stroke-width="3"/><path d="M670 252 C 750.0 247, 850.0 254, 930 251" fill="none" stroke="#16A34A" opacity=".45"/><text x="674" y="306" class="label">Determinism</text><text x="674" y="344" class="small">让 bug 可以被审讯</text><rect x="1113" y="289" width="300" height="140" rx="22" fill="#EDE9FE" opacity=".5"/><rect x="1110" y="285" width="300" height="140" rx="22" fill="#EDE9FE" stroke="#7C3AED" stroke-width="3"/><path d="M1130 287 C 1210.0 282, 1310.0 289, 1390 286" fill="none" stroke="#7C3AED" opacity=".45"/><text x="1134" y="341" class="label">FP4 QAT</text><text x="1134" y="379" class="small">只压最疼的地方</text><rect x="353" y="569" width="320" height="145" rx="22" fill="#FFEDD5" opacity=".5"/><rect x="350" y="565" width="320" height="145" rx="22" fill="#FFEDD5" stroke="#EA580C" stroke-width="3"/><path d="M370 567 C 456.6666666666667 562, 563.3333333333334 569, 650 566" fill="none" stroke="#EA580C" opacity=".45"/><text x="374" y="621" class="label">Muon + ZeRO</text><text x="374" y="659" class="small">完整矩阵 vs 分布式切分</text><rect x="893" y="569" width="340" height="145" rx="22" fill="#FEF3C7" opacity=".5"/><rect x="890" y="565" width="340" height="145" rx="22" fill="#FEF3C7" stroke="#D97706" stroke-width="3"/><path d="M910 567 C 1003.3333333333334 562, 1116.6666666666667 569, 1210 566" fill="none" stroke="#D97706" opacity=".45"/><text x="914" y="621" class="label">KV Cache OS</text><text x="914" y="659" class="small">推理时的分层内存管理</text><path d="M485 355 C 567.5 355, 567.5 320, 650 320" fill="none" stroke="#1F2937" stroke-width="3" marker-end="url(#a)"/><path d="M950 320 C 1030.0 320, 1030.0 355, 1110 355" fill="none" stroke="#1F2937" stroke-width="3" marker-end="url(#a)"/><path d="M330 425 C 395.0 425, 395.0 565, 460 565" fill="none" stroke="#1F2937" stroke-width="3" marker-end="url(#a)"/><path d="M1260 425 C 1160.0 425, 1160.0 565, 1060 565" fill="none" stroke="#1F2937" stroke-width="3" marker-end="url(#a)"/><path d="M670 640 C 780.0 640, 780.0 640, 890 640" fill="none" stroke="#1F2937" stroke-width="3" marker-end="url(#a)"/><text x="180" y="825" class="subtitle">复杂结构能跑起来，不靠口号，靠把每一张系统欠条还掉。</text></svg>