<svg xmlns="http://www.w3.org/2000/svg" width="1400" height="840" viewBox="0 0 1400 840">
<defs>
  <marker id="arrow" markerWidth="12" markerHeight="12" refX="10" refY="6" orient="auto">
    <path d="M2,2 L10,6 L2,10" fill="#1F2937"/>
  </marker>
  <style>
    .title { font: 700 44px "Virgil", "Comic Sans MS", "Inter", Arial, sans-serif; fill: #1F2937; }
    .subtitle { font: 500 22px "Virgil", "Comic Sans MS", "Inter", Arial, sans-serif; fill: #6B7280; }
    .label { font: 700 24px "Virgil", "Comic Sans MS", "Inter", Arial, sans-serif; fill: #1F2937; }
    .small { font: 500 17px "Virgil", "Comic Sans MS", "Inter", Arial, sans-serif; fill: #6B7280; }
    .tiny { font: 500 14px "Virgil", "Comic Sans MS", "Inter", Arial, sans-serif; fill: #6B7280; }
    .mono { font: 600 18px "SFMono-Regular", Consolas, monospace; fill: #1F2937; }
    .note { font: 600 19px "Virgil", "Comic Sans MS", "Inter", Arial, sans-serif; fill: #1F2937; }
  </style>
</defs>
<rect width="1400" height="840" fill="#FFFDF7"/>
<path d="M40 70 C210 35, 390 55, 620 38" stroke="#FBBF24" stroke-width="16" opacity=".28" fill="none" stroke-linecap="round"/>
<text x="54" y="76" class="title">Hybrid Attention：三种距离尺度的记忆</text>
<text x="58" y="112" class="subtitle">近处看原文，中距离搜摘要，远距离扫全局。</text>
<path d="M110 720 C420 690, 820 698, 1290 720" stroke="#111827" stroke-width="4" fill="none" stroke-linecap="round"/><circle cx="150" cy="718" r="7" fill="#111827"/><circle cx="220" cy="723" r="7" fill="#111827"/><circle cx="290" cy="718" r="7" fill="#111827"/><circle cx="360" cy="723" r="7" fill="#111827"/><circle cx="430" cy="718" r="7" fill="#111827"/><circle cx="500" cy="723" r="7" fill="#111827"/><circle cx="570" cy="718" r="7" fill="#111827"/><circle cx="640" cy="723" r="7" fill="#111827"/><circle cx="710" cy="718" r="7" fill="#111827"/><circle cx="780" cy="723" r="7" fill="#111827"/><circle cx="850" cy="718" r="7" fill="#111827"/><circle cx="920" cy="723" r="7" fill="#111827"/><circle cx="990" cy="718" r="7" fill="#111827"/><circle cx="1060" cy="723" r="7" fill="#111827"/><circle cx="1130" cy="718" r="7" fill="#111827"/><circle cx="1200" cy="723" r="7" fill="#111827"/>
<rect x="93" y="194" width="340" height="180" rx="26" fill="#FEF3C7" stroke="none" opacity="0.45"/>
<rect x="90" y="190" width="340" height="180" rx="26" fill="#FEF3C7" stroke="#D97706" stroke-width="3" stroke-linecap="round" stroke-linejoin="round"/>
<path d="M116 192 C 203.33333333333331 188, 316.66666666666663 193, 404 191" fill="none" stroke="#D97706" stroke-width="1.2" opacity=".45"/>
<path d="M92 344 C 89 280.0, 93 250.0, 91 216" fill="none" stroke="#D97706" stroke-width="1.2" opacity=".35"/>
<text x="120" y="245" class="label">SWA</text><text x="120" y="282" class="small">最近 128 个 token</text><text x="120" y="314" class="small">必须看原文</text><path d="M250 370 C230 450, 230 560, 315 695" stroke="#D97706" stroke-width="4" fill="none" stroke-linecap="round"/>
<rect x="533" y="174" width="360" height="220" rx="26" fill="#DBEAFE" stroke="none" opacity="0.45"/>
<rect x="530" y="170" width="360" height="220" rx="26" fill="#DBEAFE" stroke="#2563EB" stroke-width="3" stroke-linecap="round" stroke-linejoin="round"/>
<path d="M556 172 C 650.0 168, 770.0 173, 864 171" fill="none" stroke="#2563EB" stroke-width="1.2" opacity=".45"/>
<path d="M532 364 C 529 280.0, 533 243.33333333333331, 531 196" fill="none" stroke="#2563EB" stroke-width="1.2" opacity=".35"/>
<text x="560" y="230" class="label">CSA</text><text x="560" y="268" class="small">m=4：小摘要</text><text x="560" y="302" class="small">Lightning Indexer 先检索</text><text x="560" y="336" class="small">top‑k 再精读</text><path d="M710 390 C710 500, 690 580, 700 700" stroke="#2563EB" stroke-width="4" fill="none" stroke-linecap="round"/>
<rect x="993" y="194" width="340" height="180" rx="26" fill="#EDE9FE" stroke="none" opacity="0.45"/>
<rect x="990" y="190" width="340" height="180" rx="26" fill="#EDE9FE" stroke="#7C3AED" stroke-width="3" stroke-linecap="round" stroke-linejoin="round"/>
<path d="M1016 192 C 1103.3333333333333 188, 1216.6666666666667 193, 1304 191" fill="none" stroke="#7C3AED" stroke-width="1.2" opacity=".45"/>
<path d="M992 344 C 989 280.0, 993 250.0, 991 216" fill="none" stroke="#7C3AED" stroke-width="1.2" opacity=".35"/>
<text x="1020" y="245" class="label">HCA</text><text x="1020" y="282" class="small">m′=128：大摘要</text><text x="1020" y="314" class="small">压得狠，所以全看</text><path d="M1160 370 C1090 470, 1080 590, 1070 705" stroke="#7C3AED" stroke-width="4" fill="none" stroke-linecap="round"/>
<rect x="433" y="474" width="520" height="110" rx="22" fill="#DCFCE7" stroke="none" opacity="0.45"/>
<rect x="430" y="470" width="520" height="110" rx="22" fill="#DCFCE7" stroke="#16A34A" stroke-width="3" stroke-linecap="round" stroke-linejoin="round"/>
<path d="M452 472 C 603.3333333333334 468, 776.6666666666667 473, 928 471" fill="none" stroke="#16A34A" stroke-width="1.2" opacity=".45"/>
<path d="M432 558 C 429 525.0, 433 506.6666666666667, 431 492" fill="none" stroke="#16A34A" stroke-width="1.2" opacity=".35"/>
<text x="465" y="514" class="label">交替使用，不是二选一</text><text x="465" y="548" class="small">有的层负责细节检索，有的层负责全局背景。</text></svg>