<svg xmlns="http://www.w3.org/2000/svg" width="1500" height="900" viewBox="0 0 1500 900">
<defs>
  <marker id="arrow" markerWidth="12" markerHeight="12" refX="10" refY="6" orient="auto">
    <path d="M2,2 L10,6 L2,10" fill="#1F2937"/>
  </marker>
  <style>
    .title { font: 700 44px "Virgil", "Comic Sans MS", "Inter", Arial, sans-serif; fill: #1F2937; }
    .subtitle { font: 500 22px "Virgil", "Comic Sans MS", "Inter", Arial, sans-serif; fill: #6B7280; }
    .label { font: 700 24px "Virgil", "Comic Sans MS", "Inter", Arial, sans-serif; fill: #1F2937; }
    .small { font: 500 17px "Virgil", "Comic Sans MS", "Inter", Arial, sans-serif; fill: #6B7280; }
    .tiny { font: 500 14px "Virgil", "Comic Sans MS", "Inter", Arial, sans-serif; fill: #6B7280; }
    .mono { font: 600 18px "SFMono-Regular", Consolas, monospace; fill: #1F2937; }
    .note { font: 600 19px "Virgil", "Comic Sans MS", "Inter", Arial, sans-serif; fill: #1F2937; }
  </style>
</defs>
<rect width="1500" height="900" fill="#FFFDF7"/>
<path d="M40 70 C210 35, 390 55, 620 38" stroke="#FBBF24" stroke-width="16" opacity=".28" fill="none" stroke-linecap="round"/>
<text x="54" y="76" class="title">MoE Wave：把通信藏进计算里</text>
<text x="58" y="112" class="subtitle">不是等所有 expert 到齐，而是来一批算一批。</text>
<path d="M120 760 L1380 760" stroke="#111827" stroke-width="4" marker-end="url(#arrow)"/><text x="1300" y="800" class="label">时间</text><text x="55" y="275" class="label">Wave 1</text>
<rect x="193" y="224" width="180" height="85" rx="18" fill="#DBEAFE" stroke="none" opacity="0.45"/>
<rect x="190" y="220" width="180" height="85" rx="18" fill="#DBEAFE" stroke="#2563EB" stroke-width="2.5" stroke-linecap="round" stroke-linejoin="round"/>
<path d="M208 222 C 250.0 218, 310.0 223, 352 221" fill="none" stroke="#2563EB" stroke-width="1.2" opacity=".45"/>
<path d="M192 287 C 189 262.5, 193 248.33333333333334, 191 238" fill="none" stroke="#2563EB" stroke-width="1.2" opacity=".35"/>
<text x="208" y="272" class="small">Dispatch</text>
<rect x="391" y="224" width="205" height="85" rx="18" fill="#DCFCE7" stroke="none" opacity="0.45"/>
<rect x="388" y="220" width="205" height="85" rx="18" fill="#DCFCE7" stroke="#16A34A" stroke-width="2.5" stroke-linecap="round" stroke-linejoin="round"/>
<path d="M406 222 C 456.3333333333333 218, 524.6666666666666 223, 575 221" fill="none" stroke="#16A34A" stroke-width="1.2" opacity=".45"/>
<path d="M390 287 C 387 262.5, 391 248.33333333333334, 389 238" fill="none" stroke="#16A34A" stroke-width="1.2" opacity=".35"/>
<text x="406" y="272" class="small">Linear1</text>
<rect x="614" y="224" width="110" height="85" rx="18" fill="#EDE9FE" stroke="none" opacity="0.45"/>
<rect x="611" y="220" width="110" height="85" rx="18" fill="#EDE9FE" stroke="#7C3AED" stroke-width="2.5" stroke-linecap="round" stroke-linejoin="round"/>
<path d="M629 222 C 647.6666666666666 218, 684.3333333333334 223, 703 221" fill="none" stroke="#7C3AED" stroke-width="1.2" opacity=".45"/>
<path d="M613 287 C 610 262.5, 614 248.33333333333334, 612 238" fill="none" stroke="#7C3AED" stroke-width="1.2" opacity=".35"/>
<text x="629" y="272" class="small">Act</text>
<rect x="742" y="224" width="205" height="85" rx="18" fill="#DBEAFE" stroke="none" opacity="0.45"/>
<rect x="739" y="220" width="205" height="85" rx="18" fill="#DBEAFE" stroke="#2563EB" stroke-width="2.5" stroke-linecap="round" stroke-linejoin="round"/>
<path d="M757 222 C 807.3333333333334 218, 875.6666666666666 223, 926 221" fill="none" stroke="#2563EB" stroke-width="1.2" opacity=".45"/>
<path d="M741 287 C 738 262.5, 742 248.33333333333334, 740 238" fill="none" stroke="#2563EB" stroke-width="1.2" opacity=".35"/>
<text x="757" y="272" class="small">Linear2</text>
<rect x="965" y="224" width="180" height="85" rx="18" fill="#DCFCE7" stroke="none" opacity="0.45"/>
<rect x="962" y="220" width="180" height="85" rx="18" fill="#DCFCE7" stroke="#16A34A" stroke-width="2.5" stroke-linecap="round" stroke-linejoin="round"/>
<path d="M980 222 C 1022.0 218, 1082.0 223, 1124 221" fill="none" stroke="#16A34A" stroke-width="1.2" opacity=".45"/>
<path d="M964 287 C 961 262.5, 965 248.33333333333334, 963 238" fill="none" stroke="#16A34A" stroke-width="1.2" opacity=".35"/>
<text x="980" y="272" class="small">Combine</text><text x="55" y="445" class="label">Wave 2</text>
<rect x="343" y="394" width="180" height="85" rx="18" fill="#DCFCE7" stroke="none" opacity="0.45"/>
<rect x="340" y="390" width="180" height="85" rx="18" fill="#DCFCE7" stroke="#16A34A" stroke-width="2.5" stroke-linecap="round" stroke-linejoin="round"/>
<path d="M358 392 C 400.0 388, 460.0 393, 502 391" fill="none" stroke="#16A34A" stroke-width="1.2" opacity=".45"/>
<path d="M342 457 C 339 432.5, 343 418.3333333333333, 341 408" fill="none" stroke="#16A34A" stroke-width="1.2" opacity=".35"/>
<text x="358" y="442" class="small">Dispatch</text>
<rect x="541" y="394" width="205" height="85" rx="18" fill="#EDE9FE" stroke="none" opacity="0.45"/>
<rect x="538" y="390" width="205" height="85" rx="18" fill="#EDE9FE" stroke="#7C3AED" stroke-width="2.5" stroke-linecap="round" stroke-linejoin="round"/>
<path d="M556 392 C 606.3333333333334 388, 674.6666666666666 393, 725 391" fill="none" stroke="#7C3AED" stroke-width="1.2" opacity=".45"/>
<path d="M540 457 C 537 432.5, 541 418.3333333333333, 539 408" fill="none" stroke="#7C3AED" stroke-width="1.2" opacity=".35"/>
<text x="556" y="442" class="small">Linear1</text>
<rect x="764" y="394" width="110" height="85" rx="18" fill="#DBEAFE" stroke="none" opacity="0.45"/>
<rect x="761" y="390" width="110" height="85" rx="18" fill="#DBEAFE" stroke="#2563EB" stroke-width="2.5" stroke-linecap="round" stroke-linejoin="round"/>
<path d="M779 392 C 797.6666666666666 388, 834.3333333333334 393, 853 391" fill="none" stroke="#2563EB" stroke-width="1.2" opacity=".45"/>
<path d="M763 457 C 760 432.5, 764 418.3333333333333, 762 408" fill="none" stroke="#2563EB" stroke-width="1.2" opacity=".35"/>
<text x="779" y="442" class="small">Act</text>
<rect x="892" y="394" width="205" height="85" rx="18" fill="#DCFCE7" stroke="none" opacity="0.45"/>
<rect x="889" y="390" width="205" height="85" rx="18" fill="#DCFCE7" stroke="#16A34A" stroke-width="2.5" stroke-linecap="round" stroke-linejoin="round"/>
<path d="M907 392 C 957.3333333333334 388, 1025.6666666666667 393, 1076 391" fill="none" stroke="#16A34A" stroke-width="1.2" opacity=".45"/>
<path d="M891 457 C 888 432.5, 892 418.3333333333333, 890 408" fill="none" stroke="#16A34A" stroke-width="1.2" opacity=".35"/>
<text x="907" y="442" class="small">Linear2</text>
<rect x="1115" y="394" width="180" height="85" rx="18" fill="#EDE9FE" stroke="none" opacity="0.45"/>
<rect x="1112" y="390" width="180" height="85" rx="18" fill="#EDE9FE" stroke="#7C3AED" stroke-width="2.5" stroke-linecap="round" stroke-linejoin="round"/>
<path d="M1130 392 C 1172.0 388, 1232.0 393, 1274 391" fill="none" stroke="#7C3AED" stroke-width="1.2" opacity=".45"/>
<path d="M1114 457 C 1111 432.5, 1115 418.3333333333333, 1113 408" fill="none" stroke="#7C3AED" stroke-width="1.2" opacity=".35"/>
<text x="1130" y="442" class="small">Combine</text><text x="55" y="615" class="label">Wave 3</text>
<rect x="493" y="564" width="180" height="85" rx="18" fill="#EDE9FE" stroke="none" opacity="0.45"/>
<rect x="490" y="560" width="180" height="85" rx="18" fill="#EDE9FE" stroke="#7C3AED" stroke-width="2.5" stroke-linecap="round" stroke-linejoin="round"/>
<path d="M508 562 C 550.0 558, 610.0 563, 652 561" fill="none" stroke="#7C3AED" stroke-width="1.2" opacity=".45"/>
<path d="M492 627 C 489 602.5, 493 588.3333333333334, 491 578" fill="none" stroke="#7C3AED" stroke-width="1.2" opacity=".35"/>
<text x="508" y="612" class="small">Dispatch</text>
<rect x="691" y="564" width="205" height="85" rx="18" fill="#DBEAFE" stroke="none" opacity="0.45"/>
<rect x="688" y="560" width="205" height="85" rx="18" fill="#DBEAFE" stroke="#2563EB" stroke-width="2.5" stroke-linecap="round" stroke-linejoin="round"/>
<path d="M706 562 C 756.3333333333334 558, 824.6666666666666 563, 875 561" fill="none" stroke="#2563EB" stroke-width="1.2" opacity=".45"/>
<path d="M690 627 C 687 602.5, 691 588.3333333333334, 689 578" fill="none" stroke="#2563EB" stroke-width="1.2" opacity=".35"/>
<text x="706" y="612" class="small">Linear1</text>
<rect x="914" y="564" width="110" height="85" rx="18" fill="#DCFCE7" stroke="none" opacity="0.45"/>
<rect x="911" y="560" width="110" height="85" rx="18" fill="#DCFCE7" stroke="#16A34A" stroke-width="2.5" stroke-linecap="round" stroke-linejoin="round"/>
<path d="M929 562 C 947.6666666666666 558, 984.3333333333334 563, 1003 561" fill="none" stroke="#16A34A" stroke-width="1.2" opacity=".45"/>
<path d="M913 627 C 910 602.5, 914 588.3333333333334, 912 578" fill="none" stroke="#16A34A" stroke-width="1.2" opacity=".35"/>
<text x="929" y="612" class="small">Act</text>
<rect x="1042" y="564" width="205" height="85" rx="18" fill="#EDE9FE" stroke="none" opacity="0.45"/>
<rect x="1039" y="560" width="205" height="85" rx="18" fill="#EDE9FE" stroke="#7C3AED" stroke-width="2.5" stroke-linecap="round" stroke-linejoin="round"/>
<path d="M1057 562 C 1107.3333333333333 558, 1175.6666666666667 563, 1226 561" fill="none" stroke="#7C3AED" stroke-width="1.2" opacity=".45"/>
<path d="M1041 627 C 1038 602.5, 1042 588.3333333333334, 1040 578" fill="none" stroke="#7C3AED" stroke-width="1.2" opacity=".35"/>
<text x="1057" y="612" class="small">Linear2</text>
<rect x="1265" y="564" width="180" height="85" rx="18" fill="#DBEAFE" stroke="none" opacity="0.45"/>
<rect x="1262" y="560" width="180" height="85" rx="18" fill="#DBEAFE" stroke="#2563EB" stroke-width="2.5" stroke-linecap="round" stroke-linejoin="round"/>
<path d="M1280 562 C 1322.0 558, 1382.0 563, 1424 561" fill="none" stroke="#2563EB" stroke-width="1.2" opacity=".45"/>
<path d="M1264 627 C 1261 602.5, 1265 588.3333333333334, 1263 578" fill="none" stroke="#2563EB" stroke-width="1.2" opacity=".35"/>
<text x="1280" y="612" class="small">Combine</text>
<rect x="128" y="99" width="1210" height="70" rx="20" fill="#FFEDD5" stroke="none" opacity="0.45"/>
<rect x="125" y="95" width="1210" height="70" rx="20" fill="#FFEDD5" stroke="#EA580C" stroke-width="3" stroke-linecap="round" stroke-linejoin="round"/>
<path d="M145 97 C 528.3333333333333 93, 931.6666666666666 98, 1315 96" fill="none" stroke="#EA580C" stroke-width="1.2" opacity=".45"/>
<path d="M127 145 C 124 130.0, 128 118.33333333333333, 126 115" fill="none" stroke="#EA580C" stroke-width="1.2" opacity=".35"/>
<text x="160" y="140" class="small">Naive：等所有 Dispatch 完 → 所有 GEMM → 所有 Combine，网络和 Tensor Core 轮流空转</text>
<rect x="878" y="679" width="440" height="92" rx="22" fill="#FEF3C7" stroke="none" opacity="0.45"/>
<rect x="875" y="675" width="440" height="92" rx="22" fill="#FEF3C7" stroke="#D97706" stroke-width="3" stroke-linecap="round" stroke-linejoin="round"/>
<path d="M897 677 C 1021.6666666666666 673, 1168.3333333333333 678, 1293 676" fill="none" stroke="#D97706" stroke-width="1.2" opacity=".45"/>
<path d="M877 745 C 874 721.0, 878 705.6666666666666, 876 697" fill="none" stroke="#D97706" stroke-width="1.2" opacity=".35"/>
<text x="910" y="716" class="label">稳定时刻</text><text x="910" y="748" class="tiny">当前 wave 在算，下一 wave 在路上，上一 wave 在回传。</text></svg>